<?xml version="1.0" standalone="no"?>
<!DOCTYPE svg PUBLIC "-//W3C//DTD SVG 20010904//EN"
 "http://www.w3.org/TR/2001/REC-SVG-20010904/DTD/svg10.dtd">
<svg version="1.0" xmlns="http://www.w3.org/2000/svg"
 width="1008.000000pt" height="1008.000000pt" viewBox="0 0 1008.000000 1008.000000"
 preserveAspectRatio="xMidYMid meet">
<metadata>
Created by potrace 1.11, written by Peter Selinger 2001-2013
</metadata>
<g transform="translate(0.000000,1008.000000) scale(0.100000,-0.100000)"
fill="#000000" stroke="none">
<path d="M1125 9633 c1 -132 3 -128 -51 -126 l-45 1 3 -51 3 -52 45 0 45 0 1
-250 c1 -265 4 -301 36 -353 32 -53 84 -74 185 -76 35 0 63 -5 63 -9 0 -4 9
-3 19 3 13 7 22 7 26 0 4 -7 13 -7 26 0 14 8 19 7 19 -2 1 -9 5 -8 13 3 7 10
11 36 9 61 l-4 45 -94 1 c-108 2 -148 16 -159 59 -13 44 -12 512 0 516 5 2 62
3 125 3 129 -1 137 3 135 62 l-2 37 -89 2 c-49 0 -109 2 -134 2 l-46 1 1 108
0 107 -65 3 -66 3 1 -98z"/>
<path d="M5577 9715 c-4 -8 -2 -17 4 -20 5 -4 6 -11 3 -17 -4 -6 -6 -46 -5
-89 1 -58 -2 -79 -11 -80 -7 0 -29 -1 -48 -2 l-35 -2 0 -49 0 -49 45 -1 45 -1
2 -85 c1 -47 3 -103 4 -126 1 -22 -1 -45 -4 -50 -3 -6 -2 -16 3 -24 5 -9 5
-19 -1 -27 -7 -8 -7 -18 0 -31 6 -11 7 -22 4 -26 -3 -3 -6 -27 -5 -53 7 -188
51 -244 205 -257 21 -2 40 -6 44 -9 3 -4 14 -2 24 4 11 5 19 6 19 2 0 -7 74
-9 90 -3 3 1 7 2 10 2 3 0 6 24 6 53 l0 54 -87 -1 c-113 0 -151 12 -167 55 -8
23 -12 113 -12 279 l0 245 126 -1 c69 -1 129 1 133 4 4 3 7 26 7 51 l0 46
-133 -1 -133 -1 0 113 0 112 -64 0 c-47 0 -65 -4 -69 -15z"/>
<path d="M534 9519 c-120 -22 -195 -91 -208 -191 -6 -50 10 -124 35 -157 34
-46 121 -87 229 -108 40 -8 55 -11 55 -13 0 -1 8 -3 18 -5 9 -2 37 -13 61 -25
79 -38 86 -134 12 -179 -73 -46 -210 -42 -342 9 -41 15 -72 24 -68 19 3 -5 1
-9 -3 -9 -5 0 -8 -23 -7 -52 2 -56 12 -67 74 -81 66 -14 85 -17 145 -23 33 -3
66 -7 73 -9 6 -2 12 -1 12 3 0 4 19 7 43 6 23 0 47 2 52 5 6 3 12 6 15 7 9 2
45 16 70 27 32 15 81 64 100 101 19 37 21 177 3 184 -7 2 -13 9 -13 16 0 45
-142 115 -281 140 -66 11 -136 45 -148 72 -23 51 -4 111 42 135 74 40 292 25
355 -24 8 -6 12 -6 12 2 0 7 5 9 11 5 8 -4 8 -1 2 12 -5 11 -8 36 -8 57 1 26
-3 41 -14 46 -51 27 -245 45 -327 30z"/>
<path d="M1896 9523 c-1 -2 -23 -6 -47 -9 -24 -4 -68 -15 -97 -26 l-53 -20 2
-57 2 -58 61 25 c70 28 108 36 186 35 114 -1 172 -29 210 -101 14 -29 23 -92
13 -92 -5 -1 -71 -3 -148 -5 -119 -3 -180 -8 -180 -15 0 -1 -7 -3 -16 -5 -61
-11 -135 -71 -163 -130 -32 -67 -27 -180 11 -250 15 -26 25 -38 68 -73 22 -18
155 -55 155 -43 0 3 26 6 58 7 69 1 125 27 181 85 l41 40 -3 -46 c-2 -29 2
-50 10 -57 15 -12 94 -15 112 -4 9 6 11 80 8 284 -3 258 -5 281 -25 333 -36
92 -112 155 -207 174 -40 8 -173 14 -179 8z m277 -412 c12 -2 2 -91 -17 -148
-19 -57 -73 -117 -126 -140 -69 -29 -182 -12 -221 34 -23 27 -32 53 -34 103
-4 113 83 157 305 154 47 -1 89 -2 93 -3z"/>
<path d="M3328 9515 c-57 -15 -110 -47 -139 -83 -11 -15 -23 -27 -27 -27 -3 0
-5 23 -5 51 l1 50 -64 2 -64 2 0 -33 c-1 -49 -1 -998 -1 -1028 1 -23 6 -27 36
-31 19 -2 35 0 35 4 0 5 9 4 19 -1 33 -18 39 7 39 169 1 85 1 175 1 200 l1 44
17 -24 c26 -37 49 -57 85 -76 35 -19 158 -46 158 -35 0 3 17 6 38 7 20 0 55 9
77 19 45 22 115 83 115 102 0 7 3 13 8 13 12 0 51 94 63 152 6 29 10 89 9 133
-3 112 -4 125 -13 125 -4 0 -6 3 -5 8 7 26 -56 148 -94 182 -51 46 -86 66
-128 76 -48 11 -115 11 -162 -1z m139 -119 c39 -18 100 -88 106 -122 1 -10 6
-25 11 -33 5 -7 10 -56 12 -109 3 -128 -20 -207 -80 -266 -49 -50 -98 -65
-170 -55 -85 13 -146 76 -171 177 -22 84 -15 228 13 292 18 42 81 119 99 121
20 2 45 8 49 12 10 10 96 -1 131 -17z"/>
<path d="M4085 9508 c-122 -28 -125 -30 -126 -42 -4 -34 -4 -102 -1 -109 2 -4
9 -4 15 1 61 46 241 71 328 46 78 -23 123 -76 127 -149 l3 -40 -148 -1 c-174
-1 -241 -18 -310 -77 -49 -43 -68 -94 -68 -187 0 -97 15 -135 73 -187 32 -30
96 -60 115 -55 4 1 17 -2 27 -8 15 -8 20 -8 20 1 0 8 4 9 13 0 8 -6 16 -8 20
-5 3 3 26 7 50 9 62 6 129 39 172 86 19 21 36 33 36 27 1 -7 2 -29 3 -50 0
-20 4 -39 8 -43 10 -10 68 -12 74 -3 3 5 12 4 19 -2 10 -9 16 -7 22 7 10 20 8
478 -2 533 -3 19 -7 44 -9 55 -6 38 -48 106 -89 140 -77 66 -225 87 -372 53z
m346 -397 c3 -1 5 -22 3 -48 -12 -153 -105 -254 -233 -255 -104 0 -171 58
-171 149 0 118 83 161 305 157 50 -1 93 -2 96 -3z"/>
<path d="M4975 9515 c-86 -20 -148 -63 -174 -120 -15 -34 -31 -145 -20 -145 3
0 9 -14 13 -32 9 -47 74 -102 148 -127 61 -20 77 -24 143 -37 72 -14 127 -46
146 -85 29 -58 -11 -130 -83 -149 -40 -11 -149 -14 -183 -6 -11 3 -36 9 -55
14 -19 5 -52 17 -74 26 -62 26 -65 23 -64 -44 2 -69 4 -70 138 -98 48 -9 245
-9 258 1 6 5 12 7 12 4 0 -14 97 37 127 65 46 44 65 92 65 159 0 112 -66 179
-215 218 -224 59 -248 72 -250 137 -2 83 57 119 199 118 50 0 105 -6 120 -12
16 -6 38 -12 49 -14 11 -2 26 -9 33 -15 7 -7 16 -13 20 -13 6 0 7 53 3 116 -3
35 -252 62 -356 39z"/>
<path d="M6357 9524 c-1 -1 -20 -5 -42 -8 -41 -7 -90 -20 -135 -37 -23 -9 -26
-15 -25 -58 0 -27 3 -52 6 -56 4 -3 24 2 45 11 22 9 52 19 69 21 16 3 36 8 45
12 8 4 49 6 90 5 119 -3 185 -42 212 -123 26 -75 24 -76 -115 -76 -67 1 -144
-3 -172 -8 -132 -23 -219 -101 -232 -206 -2 -18 -4 -36 -5 -40 -1 -3 1 -30 5
-60 15 -105 89 -178 197 -195 9 -1 21 -5 28 -10 7 -4 12 -2 12 4 0 8 6 8 20 0
11 -6 20 -7 20 -2 0 4 12 8 28 7 67 -2 177 53 203 102 17 31 23 21 24 -35 0
-32 4 -46 13 -44 6 1 12 -2 12 -6 0 -9 41 -8 57 1 7 4 15 3 18 -3 4 -7 11 -8
18 -1 12 10 15 449 3 537 -18 140 -101 233 -231 259 -36 8 -162 14 -168 9z
m269 -413 c15 -2 7 -84 -15 -146 -36 -101 -109 -154 -213 -155 -70 0 -116 21
-147 66 -20 29 -23 43 -19 94 6 88 51 126 163 137 27 3 51 6 52 6 2 2 162 0
179 -2z"/>
<path d="M7810 9520 c-75 -11 -156 -59 -173 -105 -12 -30 -24 -7 -23 43 l2 49
-62 2 c-42 1 -63 -2 -66 -11 -2 -7 -4 -251 -4 -543 l1 -530 26 -1 c14 -1 31
-4 37 -8 6 -3 13 -2 16 2 3 5 16 7 28 5 l23 -4 -1 200 c0 111 1 201 2 201 2 0
21 -18 42 -39 41 -42 96 -70 150 -77 18 -2 36 -5 40 -5 4 -1 9 -1 12 0 3 1 26
3 52 5 162 12 282 201 274 430 -4 92 -10 124 -37 183 -10 24 -19 47 -19 52 0
5 -25 34 -54 64 -76 77 -155 102 -266 87z m109 -120 c66 -27 125 -134 130
-236 1 -28 4 -60 5 -70 2 -15 -11 -90 -24 -132 -46 -154 -227 -206 -337 -97
-28 28 -68 119 -73 165 -5 53 -2 162 4 193 10 45 37 107 47 107 5 0 9 6 9 13
0 15 58 55 96 66 36 11 107 6 143 -9z"/>
<path d="M8606 9522 c-3 -2 -24 -7 -47 -9 -23 -3 -65 -13 -93 -23 l-51 -17 -2
-61 -2 -62 40 20 c21 11 39 18 39 15 0 -3 9 -1 21 5 73 39 262 29 307 -17 7
-7 17 -13 22 -13 20 0 64 -139 44 -141 -5 0 -67 -2 -139 -3 -153 -4 -194 -11
-257 -42 -53 -27 -91 -64 -113 -111 -18 -37 -29 -151 -17 -167 5 -6 9 -21 10
-34 1 -23 34 -77 62 -100 32 -26 90 -52 130 -57 23 -3 46 -7 50 -10 5 -3 11
-1 14 4 3 5 21 8 39 6 52 -5 144 37 189 86 l40 43 -3 -57 c-3 -42 -1 -56 8
-53 7 3 15 1 18 -4 3 -5 18 -5 35 0 17 5 30 5 30 0 0 -4 9 -6 19 -3 18 5 19
18 19 251 0 234 -7 328 -28 382 -1 3 -2 8 -1 13 0 4 -3 7 -9 7 -5 0 -10 6 -10
14 0 20 -66 84 -109 106 -20 10 -54 21 -76 25 -49 9 -172 14 -179 7z m278
-457 c-2 -60 -5 -78 -26 -126 -58 -133 -247 -175 -340 -77 -16 16 -29 37 -29
46 -1 9 -3 31 -4 47 -2 33 17 89 37 108 22 21 71 39 123 44 28 3 51 6 52 7 1
0 43 1 95 1 l93 0 -1 -50z"/>
<path d="M9440 9518 c-19 -5 -43 -10 -53 -13 -60 -14 -160 -116 -142 -145 3
-5 1 -11 -3 -14 -5 -3 -8 -29 -6 -58 5 -73 6 -78 16 -78 4 0 8 -8 8 -18 0 -10
10 -27 23 -38 32 -27 77 -56 77 -48 0 4 6 2 13 -4 6 -6 50 -20 97 -32 47 -12
90 -23 95 -25 6 -1 24 -6 42 -10 82 -19 116 -123 58 -181 -66 -66 -269 -58
-406 16 -25 13 -34 -1 -34 -60 0 -61 13 -74 78 -84 17 -2 32 -5 32 -6 0 -14
231 -21 280 -9 76 19 92 26 136 61 57 43 78 96 74 180 -3 60 -8 76 -33 107
-16 20 -48 47 -71 60 -35 19 -156 57 -241 75 -8 2 -28 8 -43 14 -16 7 -31 12
-35 12 -14 0 -35 45 -40 82 -8 77 78 121 221 113 66 -4 159 -27 184 -47 16
-12 20 -2 22 59 2 51 1 53 -32 67 -66 27 -245 41 -317 24z"/>
<path d="M9943 9496 c2 -6 1 -20 -3 -31 -12 -31 5 -62 32 -60 20 1 23 7 26 53
l3 51 -31 -1 c-18 -1 -29 -6 -27 -12z"/>
<path d="M1198 7844 c-3 -3 -32 -7 -64 -9 -33 -2 -59 -4 -59 -5 0 -1 -11 -3
-25 -6 -14 -2 -41 -7 -60 -11 -19 -3 -37 -7 -40 -7 -3 -1 -11 -5 -17 -9 -7 -5
-13 -6 -13 -3 0 7 -149 -48 -202 -75 -96 -48 -215 -136 -298 -219 -80 -81
-200 -241 -200 -269 0 -6 -4 -11 -10 -11 -5 0 -9 -3 -8 -7 1 -5 -4 -19 -11
-32 -13 -23 -68 -177 -77 -216 -35 -145 -42 -343 -18 -480 13 -77 48 -194 80
-272 9 -21 15 -40 14 -42 -1 -2 2 -7 7 -10 4 -3 16 -22 26 -41 37 -70 52 -95
63 -105 5 -5 23 -27 38 -48 31 -42 160 -174 192 -197 119 -84 144 -100 144
-93 0 4 4 3 8 -4 8 -12 155 -83 172 -83 6 0 18 -4 28 -9 40 -22 177 -49 279
-57 75 -5 7573 -5 7633 0 66 6 123 15 160 26 18 5 36 7 41 5 4 -3 10 -1 14 5
3 5 15 10 26 10 10 0 27 4 37 10 9 5 56 26 105 46 48 20 87 40 87 45 0 5 6 9
13 9 27 0 163 105 249 192 49 49 88 93 88 98 0 5 6 15 14 23 38 37 152 248
158 292 2 11 7 26 11 33 5 7 11 25 14 40 8 41 11 57 13 57 5 0 21 106 26 175
2 36 6 74 8 85 2 11 1 24 -2 29 -3 5 -7 39 -8 75 -4 66 -7 93 -18 141 -4 14
-9 38 -11 54 -3 16 -10 37 -16 47 -5 11 -6 19 -2 19 4 0 2 5 -5 12 -7 7 -12
18 -12 25 0 27 -112 245 -140 273 -3 3 -23 28 -44 55 -54 68 -141 152 -222
213 -60 45 -199 122 -261 144 -13 4 -33 12 -45 17 -13 5 -36 13 -53 17 -16 4
-34 8 -40 10 -48 14 -120 25 -190 29 -27 2 -52 4 -55 5 -17 6 -7479 4 -7498
-2 -15 -5 -21 -4 -17 2 7 11 2 14 -7 4z"/>
<path d="M7120 4863 c-41 -8 -82 -16 -90 -17 -8 -2 -22 -6 -30 -9 -8 -3 -36
-13 -62 -21 -77 -25 -179 -76 -264 -132 -86 -57 -233 -194 -274 -256 -14 -21
-28 -38 -32 -38 -5 0 -8 -6 -8 -14 0 -8 -3 -16 -7 -18 -11 -4 -39 -51 -69
-115 -24 -50 -45 -65 -59 -43 -3 6 -15 10 -26 10 -10 0 -19 4 -19 9 0 11 -98
25 -170 24 -73 0 -133 -10 -200 -32 l-54 -18 -2 -56 c-3 -61 0 -63 43 -45 15
6 31 11 36 10 4 -1 7 2 7 6 0 5 6 9 13 9 6 0 28 4 47 8 19 4 68 8 108 9 57 1
83 -4 120 -22 55 -26 84 -59 73 -82 -5 -8 -11 -32 -15 -52 -4 -21 -12 -38 -19
-39 -7 0 -61 -2 -122 -4 -60 -2 -125 -9 -144 -14 -19 -6 -38 -8 -42 -5 -5 3
-9 1 -9 -4 0 -4 -16 -16 -36 -25 -75 -36 -114 -110 -116 -217 -1 -102 42 -179
126 -222 33 -18 58 -22 131 -22 50 0 100 3 112 6 31 9 87 39 95 52 7 10 23 2
23 -12 1 -16 27 -108 36 -124 5 -10 9 -22 9 -28 0 -5 16 -45 36 -87 31 -66 58
-111 139 -231 19 -28 170 -177 205 -201 126 -90 256 -160 326 -177 16 -4 34
-9 39 -13 6 -3 15 -6 20 -8 6 -1 21 -5 35 -8 68 -16 140 -28 185 -30 28 -2 50
-4 50 -5 0 -1 309 -3 688 -3 378 -1 687 0 687 3 0 3 24 6 53 7 72 2 132 8 143
15 5 4 27 9 49 13 22 4 65 17 95 28 30 12 57 21 60 22 3 0 43 19 90 43 182 91
351 247 460 426 98 162 157 345 165 516 2 36 4 70 5 75 1 6 2 12 1 15 -1 3 -4
44 -5 91 -4 77 -33 230 -55 284 -5 11 -13 31 -18 45 -38 95 -78 166 -168 298
-44 65 -224 224 -310 274 -102 60 -277 133 -289 121 -3 -4 -6 -2 -6 3 0 5 -10
11 -22 12 -13 1 -57 8 -98 16 -111 22 -1559 21 -1670 -1z m-964 -1035 c6 -4
10 -21 8 -38 -2 -16 -6 -43 -8 -60 -2 -16 -1 -32 3 -35 3 -4 6 -25 6 -48 0
-34 -5 -47 -29 -70 -79 -74 -248 -60 -292 24 -24 48 -20 143 7 160 8 5 10 9 5
9 -13 0 36 36 59 43 11 4 38 9 60 13 22 3 41 7 42 8 6 5 130 0 139 -6z"/>
<path d="M2979 4452 l-56 -3 0 -106 c-1 -62 -5 -108 -11 -112 -6 -3 -27 -6
-46 -5 -27 2 -36 -2 -37 -15 -2 -19 -2 -74 0 -81 1 -3 18 -5 39 -4 20 0 42 -1
47 -3 11 -4 11 -64 1 -82 -4 -5 -3 -12 1 -14 10 -6 9 -90 -1 -105 -3 -6 -3
-13 2 -16 7 -4 8 -82 2 -111 -1 -5 -2 -12 -1 -15 2 -3 4 -45 5 -95 4 -128 34
-191 103 -220 46 -19 243 -39 243 -24 0 3 12 4 26 1 19 -3 25 -1 20 7 -4 6 -3
11 3 11 6 0 8 6 5 13 -3 8 -6 27 -7 43 l-2 29 -78 0 c-42 0 -77 3 -77 6 0 3
-10 4 -23 2 -14 -3 -33 5 -52 21 -17 14 -26 26 -21 26 5 0 4 6 -1 13 -10 12
-17 467 -7 498 4 15 22 17 133 15 l129 -1 -2 50 -1 50 -125 2 c-69 0 -128 2
-131 2 -4 1 -7 49 -7 108 -1 58 -5 109 -9 112 -4 3 -33 5 -64 3z"/>
<path d="M661 4234 c-64 -19 -141 -75 -141 -102 0 -5 -7 -9 -15 -9 -8 0 -11 5
-8 10 10 16 9 87 -2 89 -5 1 -36 2 -67 3 l-58 1 0 -543 0 -544 64 2 c62 2 64
3 68 30 3 15 0 35 -4 43 -5 9 -5 16 -1 16 4 0 6 73 5 162 l-4 163 30 -37 c16
-21 32 -35 36 -31 3 3 6 1 6 -5 0 -6 24 -22 53 -36 43 -20 66 -23 132 -22 98
3 143 22 207 87 47 48 88 124 91 166 1 13 4 23 7 23 17 0 18 194 3 260 -16 64
-53 150 -65 150 -4 0 -8 4 -8 10 0 12 -47 60 -80 81 -64 41 -173 56 -249 33z
m117 -104 c2 -3 16 -7 31 -9 20 -2 85 -78 104 -121 16 -36 20 -67 21 -155 0
-60 -3 -122 -6 -136 -10 -41 -47 -109 -60 -109 -6 0 -8 -3 -5 -7 4 -3 -7 -16
-24 -29 -49 -36 -155 -48 -188 -21 -8 7 -16 11 -17 10 -2 -1 -17 5 -33 14 -26
15 -42 41 -82 125 -13 29 -18 202 -7 253 18 85 82 168 141 183 29 7 118 9 125
2z"/>
<path d="M1508 4244 c-2 -1 -23 -5 -47 -8 -46 -5 -141 -34 -154 -46 -7 -6 -11
-61 -8 -98 1 -14 17 -11 80 16 67 28 226 35 283 11 35 -14 95 -67 91 -81 -2
-4 1 -8 5 -8 4 0 8 -8 9 -17 1 -10 4 -30 7 -45 3 -18 0 -28 -7 -29 -7 0 -75
-2 -152 -4 -201 -5 -287 -38 -342 -132 -24 -42 -28 -58 -28 -128 0 -123 52
-205 152 -237 47 -16 166 -18 222 -4 32 7 98 52 130 87 l26 28 1 -50 c0 -50
18 -79 37 -60 5 5 24 5 42 1 23 -5 37 -4 43 4 11 14 8 517 -3 566 -11 50 -48
120 -80 152 -30 30 -94 64 -140 73 -33 7 -163 14 -167 9z m263 -413 c5 -1 4
-96 -1 -96 -1 0 -4 -13 -6 -30 -3 -16 -11 -33 -17 -37 -7 -4 -8 -8 -4 -8 12 0
-33 -62 -62 -85 -14 -11 -28 -19 -31 -18 -3 1 -10 -3 -16 -8 -31 -26 -132 -26
-183 -1 -53 26 -80 72 -76 130 8 110 32 132 160 149 22 3 41 6 42 7 2 1 185
-1 194 -3z"/>
<path d="M2308 4239 c-7 -4 -35 -17 -63 -30 -27 -12 -58 -32 -68 -43 -19 -23
-47 -79 -52 -108 -2 -10 -7 -23 -10 -28 -3 -6 -2 -10 3 -10 5 0 8 -10 7 -23
-4 -33 19 -95 45 -122 20 -21 71 -52 92 -55 4 0 27 -8 50 -16 24 -9 52 -17 63
-18 92 -13 182 -54 196 -89 41 -99 -32 -170 -174 -168 -72 1 -159 15 -182 30
-5 3 -12 6 -15 7 -3 1 -21 7 -40 14 -19 8 -37 12 -40 9 -2 -2 -5 -30 -6 -61
-1 -63 -4 -60 91 -84 17 -4 39 -9 50 -12 45 -12 250 -6 274 7 17 9 21 10 16 1
-5 -8 0 -8 15 2 12 7 30 18 39 23 53 32 101 86 109 124 17 82 2 164 -39 208
-27 28 -133 81 -176 88 -32 5 -68 13 -68 15 0 1 -13 4 -30 6 -49 9 -125 46
-137 68 -16 30 -11 86 9 108 36 40 70 50 168 51 89 1 128 -6 191 -30 l50 -20
-1 60 c-1 70 0 70 -121 93 -49 9 -228 11 -246 3z"/>
<path d="M3698 4244 c-2 -1 -19 -5 -38 -8 -57 -9 -142 -34 -152 -44 -11 -11
-16 -112 -6 -112 4 0 30 9 58 20 27 11 50 17 50 14 0 -4 7 -1 15 6 9 8 50 13
108 14 94 1 146 -13 190 -52 34 -30 66 -125 46 -137 -6 -4 -72 -8 -148 -10
-205 -3 -302 -43 -357 -145 -26 -48 -26 -190 0 -239 48 -91 115 -125 246 -125
84 0 101 3 150 28 30 15 66 42 80 61 14 18 27 31 30 29 2 -3 4 -26 5 -52 0
-40 3 -47 20 -48 11 -1 25 -3 30 -4 6 -1 26 -2 45 -1 l35 1 -1 253 c0 138 -4
275 -9 302 -8 52 -41 125 -72 160 -16 18 -71 58 -83 60 -3 1 -25 7 -50 14 -38
11 -185 23 -192 15z m273 -421 c5 -46 3 -64 -9 -113 -8 -30 -20 -62 -28 -71
-8 -8 -14 -19 -14 -22 0 -14 -38 -44 -84 -66 -47 -23 -99 -28 -159 -16 -37 8
-94 63 -103 99 -16 65 16 149 65 168 14 5 26 8 27 6 0 -2 7 2 15 8 8 5 32 12
54 13 22 2 41 4 42 5 1 0 45 1 97 1 70 0 96 -3 97 -12z"/>
<path d="M5115 4232 c-28 -7 -57 -20 -66 -28 -8 -8 -20 -14 -25 -14 -5 0 -20
-16 -34 -35 -14 -19 -27 -35 -30 -35 -3 0 -6 24 -5 53 l0 52 -62 2 c-35 1 -63
-1 -64 -5 -1 -4 -2 -249 -3 -545 l-1 -537 65 0 65 0 0 205 0 204 35 -37 c40
-43 86 -74 115 -79 75 -13 163 -10 211 8 72 27 163 123 179 189 2 5 7 19 24
65 11 30 6 244 -8 294 -51 190 -221 294 -396 243z m147 -112 c40 -21 79 -63
100 -109 27 -59 30 -80 31 -186 0 -183 -82 -298 -213 -295 -52 1 -66 4 -100
23 -84 47 -121 133 -122 282 0 152 53 256 147 291 37 14 125 10 157 -6z"/>
<path d="M1195 2322 c-2 -3 -28 -7 -57 -9 -65 -4 -122 -11 -125 -13 -4 -3 -12
-5 -58 -15 -86 -17 -238 -82 -335 -143 -216 -134 -415 -390 -481 -614 -7 -27
-16 -48 -19 -48 -3 0 -6 -10 -6 -22 -1 -13 -9 -60 -17 -104 -20 -104 -20 -285
0 -389 9 -44 16 -90 17 -102 0 -13 3 -23 6 -23 3 0 12 -21 19 -47 23 -81 108
-244 167 -323 181 -239 416 -386 719 -450 84 -18 144 -19 850 -19 651 0 772 2
840 16 44 8 90 16 103 17 12 0 22 3 22 6 0 3 21 12 48 20 51 15 194 77 202 89
3 3 16 11 30 17 46 21 154 107 228 182 125 128 206 258 266 426 19 53 33 96
31 96 -3 0 0 11 5 25 10 26 20 93 25 165 2 25 4 45 5 45 1 0 3 24 4 53 0 28
-1 52 -4 52 -3 0 -7 30 -9 68 -5 109 -6 112 -13 112 -4 0 -7 8 -7 18 0 9 -1
24 -4 32 -2 8 -7 29 -11 45 -4 17 -12 41 -18 55 -6 14 -14 34 -18 45 -59 165
-208 367 -355 481 -27 22 -52 41 -55 44 -13 13 -131 81 -181 104 -56 25 -136
55 -168 61 -9 2 -28 8 -42 13 -15 6 -29 8 -32 5 -3 -3 -12 -1 -19 3 -7 5 -26
9 -43 10 -16 1 -30 3 -30 3 0 14 -1384 22 -1392 8 -2 -4 -9 -5 -14 -1 -13 8
-68 12 -74 6z"/>
<path d="M4857 1883 c-2 -5 -4 -54 -3 -110 1 -112 5 -106 -62 -105 l-33 0 3
-51 3 -52 43 2 c25 1 42 -3 43 -10 0 -7 2 -124 3 -262 2 -137 6 -259 10 -270
4 -11 12 -32 18 -46 11 -31 41 -58 83 -77 48 -22 273 -32 284 -13 4 5 5 30 3
55 l-4 45 -94 0 c-99 0 -145 14 -159 48 -13 30 -14 523 -1 525 6 1 65 2 131 2
l120 1 3 51 3 50 -118 -1 c-65 0 -125 1 -134 3 -14 3 -17 19 -17 95 0 51 0
100 -1 110 -1 14 -11 17 -60 17 -33 0 -62 -3 -64 -7z"/>
<path d="M9309 1848 c0 -24 -1 -74 -2 -113 l-2 -70 -45 0 -45 0 0 -50 0 -50
47 1 46 1 1 -249 c0 -196 3 -260 15 -301 33 -107 92 -136 284 -139 95 -2 102
3 98 66 l-2 41 -94 3 c-135 3 -148 10 -167 92 -2 12 -6 440 -4 476 1 6 47 10
131 9 79 0 131 4 134 10 2 5 3 28 2 50 l-2 40 -132 0 c-125 0 -132 1 -133 20
0 11 -1 62 0 113 l0 92 -65 0 -64 0 -1 -42z"/>
<path d="M5647 1684 c-1 -1 -22 -4 -47 -7 -48 -6 -97 -20 -142 -38 -26 -11
-28 -16 -28 -70 l0 -58 46 20 c102 46 238 56 318 24 46 -19 86 -52 86 -72 0
-7 4 -13 10 -13 6 0 9 -3 9 -7 -1 -5 -1 -10 1 -13 8 -23 6 -61 -3 -67 -7 -4
-70 -8 -142 -9 -71 -2 -141 -6 -155 -9 -14 -4 -33 -8 -42 -8 -10 -1 -18 -6
-18 -11 0 -5 -3 -6 -7 -3 -6 7 -66 -26 -94 -53 -41 -37 -63 -103 -63 -180 0
-169 107 -260 293 -247 90 5 141 28 200 87 l40 41 -2 -55 -2 -54 35 -4 c19 -2
49 -1 66 2 l32 5 -2 270 c-1 233 -4 278 -20 328 -33 102 -121 177 -226 193
-46 7 -138 12 -143 8z m256 -413 c4 -1 6 -25 3 -53 -11 -130 -80 -225 -177
-244 -124 -23 -218 30 -224 125 -6 111 38 154 176 169 52 6 188 8 222 3z"/>
<path d="M7097 1684 c-1 -1 -17 -4 -35 -7 -18 -3 -44 -13 -58 -21 -13 -9 -24
-14 -24 -11 0 4 -20 -14 -45 -39 -25 -25 -46 -46 -47 -46 -2 0 -3 24 -3 52 l0
53 -62 0 c-49 0 -63 -3 -64 -15 -1 -8 -2 -244 -3 -525 0 -330 3 -513 9 -517 6
-5 5 -8 -4 -8 -10 0 -11 -4 -3 -12 7 -9 31 -12 70 -10 l60 4 0 186 c1 103 1
195 1 206 1 16 5 14 23 -10 72 -93 211 -130 329 -88 49 18 139 91 139 112 0 7
4 12 9 12 12 0 47 85 60 148 22 105 6 295 -29 337 -6 7 -8 14 -5 17 3 3 -1 11
-10 18 -8 7 -15 18 -15 25 0 8 -25 36 -56 63 -41 37 -70 54 -108 63 -45 11
-123 19 -129 13z m73 -116 c62 -14 125 -93 146 -186 16 -69 11 -202 -10 -261
-42 -117 -139 -172 -255 -147 -101 22 -159 133 -159 303 0 219 104 327 278
291z"/>
<path d="M7888 1679 c-7 -4 -15 -6 -19 -3 -10 6 -93 -13 -144 -32 l-41 -15 2
-57 c1 -31 2 -58 3 -60 0 -1 11 4 24 12 42 27 141 48 222 48 137 0 206 -47
225 -154 5 -25 4 -38 -4 -39 -6 -1 -67 -3 -136 -4 -69 -2 -136 -5 -150 -8
-159 -28 -235 -108 -239 -253 -3 -108 32 -173 120 -222 52 -29 89 -35 184 -31
66 3 160 48 195 94 14 18 27 32 30 30 3 -2 5 -26 4 -54 0 -31 3 -51 10 -52 23
-3 109 2 115 5 10 7 2 551 -9 551 -1 0 -3 15 -4 33 -1 18 -8 38 -14 44 -7 7
-12 17 -12 24 0 35 -99 115 -160 130 -19 4 -42 9 -50 11 -30 8 -140 9 -152 2z
m269 -412 c23 -14 -3 -135 -42 -197 -43 -68 -107 -103 -184 -101 -75 1 -106
13 -138 50 -33 38 -42 82 -29 141 15 64 63 95 166 108 67 9 212 8 227 -1z"/>
<path d="M8705 1678 c-16 -5 -37 -12 -45 -15 -8 -4 -18 -5 -22 -5 -5 1 -8 -2
-8 -8 0 -5 -7 -10 -15 -10 -24 0 -85 -71 -96 -113 -12 -47 -10 -134 5 -162 39
-73 89 -102 241 -140 177 -45 212 -71 202 -154 -2 -23 -6 -43 -8 -45 -28 -20
-75 -50 -76 -48 -2 1 -4 2 -5 1 -44 -13 -156 -13 -210 1 -59 15 -97 29 -160
57 -3 2 -5 -27 -5 -63 l2 -66 38 -13 c20 -7 37 -11 37 -9 0 2 11 -1 24 -6 47
-17 206 -27 263 -15 90 17 140 42 182 91 42 47 53 77 52 145 0 71 -28 128 -81
163 -36 24 -126 59 -181 70 -62 13 -77 16 -118 28 -70 21 -97 68 -80 138 19
76 205 99 362 45 52 -17 67 -14 62 13 -2 9 -4 33 -4 53 -1 38 -5 40 -126 65
-50 10 -169 11 -189 1 -13 -6 -16 -6 -12 2 4 6 6 11 4 10 -2 0 -16 -5 -33 -11z"/>
<path d="M9980 1663 c-8 -2 -22 -7 -30 -10 -8 -4 -17 -7 -20 -8 -44 -11 -46
-15 -46 -74 l0 -58 41 18 c22 10 48 19 58 19 14 0 17 10 17 60 0 33 -1 60 -2
59 -2 0 -10 -3 -18 -6z"/>
<path d="M9955 1331 c-57 -26 -118 -102 -121 -153 -1 -10 -3 -21 -4 -25 -1 -5
-2 -30 -1 -58 1 -87 37 -150 109 -196 25 -16 50 -29 54 -29 4 0 8 30 8 66 0
50 -5 75 -21 101 -31 49 -27 135 8 174 10 12 13 35 11 77 l-3 61 -40 -18z"/>
</g>
</svg>
